<?xml version="1.0" ?><!DOCTYPE svg  PUBLIC '-//W3C//DTD SVG 1.1//EN'  'http://www.w3.org/Graphics/SVG/1.1/DTD/svg11.dtd'><svg height="512px" style="enable-background:new 0 0 512 512;" version="1.1" viewBox="0 0 512 512" width="512px" xml:space="preserve" xmlns="http://www.w3.org/2000/svg" xmlns:xlink="http://www.w3.org/1999/xlink"><g id="_x31_52_x2C__Twitter_x2C__Text_x2C__Chat"><g><g><path d="M410,107.999v294c0,18.23-14.77,33-33,33H143c-18.23,0-33-14.77-33-33v-294     c0-18.23,14.77-33,33-33h234C395.23,74.999,410,89.769,410,107.999z" style="fill:#D7DEED;"/></g><g><g><path d="M370,164.999H150c-5.523,0-10-4.477-10-10s4.477-10,10-10h220c5.522,0,10,4.477,10,10      S375.522,164.999,370,164.999z" style="fill:#AFB9D2;"/></g></g><g><g><path d="M370,244.999H150c-5.523,0-10-4.477-10-10s4.477-10,10-10h220c5.522,0,10,4.477,10,10      S375.522,244.999,370,244.999z" style="fill:#AFB9D2;"/></g></g><g><g><path d="M280,324.998H150c-5.523,0-10-4.477-10-10c0-5.521,4.477-10,10-10h130c5.522,0,10,4.479,10,10      C290,320.521,285.522,324.998,280,324.998z" style="fill:#AFB9D2;"/></g></g></g></g><g id="Layer_1"/></svg>